<svg xmlns="http://www.w3.org/2000/svg" width="33" height="34" fill="none" viewBox="0 0 33 34">
  <g filter="url(#a)">
    <path stroke="#19F7FF" stroke-linecap="round" stroke-linejoin="round" stroke-width="2" d="M21.474 27.868H30L16.5 3 9.395 19.342s2.182 1.939.71 3.908c-1.063 1.423-4.263-7.086-4.263 2.487"/>
  </g>
  <g filter="url(#b)">
    <path fill="#AAD5E8" d="M21.057 28.873a1.421 1.421 0 1 0-2.01-2.01 1.421 1.421 0 0 0 2.01 2.01Z"/>
    <path stroke="#07B3CB" stroke-linejoin="round" d="M21.057 28.873a1.421 1.421 0 1 0-2.01-2.01 1.421 1.421 0 0 0 2.01 2.01Z"/>
  </g>
  <g filter="url(#c)">
    <path fill="#AAD5E8" d="M7.852 30.589a2.842 2.842 0 1 0-4.02-4.02 2.842 2.842 0 0 0 4.02 4.02Z"/>
    <path stroke="#07B3CB" stroke-linejoin="round" d="M7.852 30.589a2.842 2.842 0 1 0-4.02-4.02 2.842 2.842 0 0 0 4.02 4.02Z"/>
  </g>
  <defs>
    <filter id="a" width="30.158" height="30.868" x="2.842" y="0" color-interpolation-filters="sRGB" filterUnits="userSpaceOnUse">
      <feFlood flood-opacity="0" result="BackgroundImageFix"/>
      <feColorMatrix in="SourceAlpha" result="hardAlpha" values="0 0 0 0 0 0 0 0 0 0 0 0 0 0 0 0 0 0 127 0"/>
      <feOffset/>
      <feGaussianBlur stdDeviation="1"/>
      <feComposite in2="hardAlpha" operator="out"/>
      <feColorMatrix values="0 0 0 0 1 0 0 0 0 1 0 0 0 0 1 0 0 0 0.25 0"/>
      <feBlend in2="BackgroundImageFix" result="effect1_dropShadow_330_1784"/>
      <feBlend in="SourceGraphic" in2="effect1_dropShadow_330_1784" result="shape"/>
    </filter>
    <filter id="b" width="7.842" height="7.842" x="16.131" y="23.947" color-interpolation-filters="sRGB" filterUnits="userSpaceOnUse">
      <feFlood flood-opacity="0" result="BackgroundImageFix"/>
      <feColorMatrix in="SourceAlpha" result="hardAlpha" values="0 0 0 0 0 0 0 0 0 0 0 0 0 0 0 0 0 0 127 0"/>
      <feOffset/>
      <feGaussianBlur stdDeviation="1"/>
      <feComposite in2="hardAlpha" operator="out"/>
      <feColorMatrix values="0 0 0 0 1 0 0 0 0 1 0 0 0 0 1 0 0 0 0.25 0"/>
      <feBlend in2="BackgroundImageFix" result="effect1_dropShadow_330_1784"/>
      <feBlend in="SourceGraphic" in2="effect1_dropShadow_330_1784" result="shape"/>
    </filter>
    <filter id="c" width="10.684" height="10.684" x=".5" y="23.237" color-interpolation-filters="sRGB" filterUnits="userSpaceOnUse">
      <feFlood flood-opacity="0" result="BackgroundImageFix"/>
      <feColorMatrix in="SourceAlpha" result="hardAlpha" values="0 0 0 0 0 0 0 0 0 0 0 0 0 0 0 0 0 0 127 0"/>
      <feOffset/>
      <feGaussianBlur stdDeviation="1"/>
      <feComposite in2="hardAlpha" operator="out"/>
      <feColorMatrix values="0 0 0 0 1 0 0 0 0 1 0 0 0 0 1 0 0 0 0.25 0"/>
      <feBlend in2="BackgroundImageFix" result="effect1_dropShadow_330_1784"/>
      <feBlend in="SourceGraphic" in2="effect1_dropShadow_330_1784" result="shape"/>
    </filter>
  </defs>
</svg>
